<svg xmlns="http://www.w3.org/2000/svg" viewBox="0 0 255.94 60.48"><title>アセット 3</title><g id="レイヤー_2" data-name="レイヤー 2"><g id="レイヤー_1-2" data-name="レイヤー 1"><path d="M48.41.93V15.7H26V26.38H42.62V41.16H26V59.79H0V.93Z"/><path d="M53.16,13.35a18.41,18.41,0,0,0,5.4,2,31.65,31.65,0,0,0,6.82.7,29.23,29.23,0,0,0,6.41-.68,17.72,17.72,0,0,0,5.2-2V59.79H53.16ZM76.84,6.71a6.55,6.55,0,0,1-2,4.79,6.38,6.38,0,0,1-4.7,2,6.57,6.57,0,0,1-4.79-2,6.57,6.57,0,0,1-2-4.79,6.38,6.38,0,0,1,2-4.7,6.55,6.55,0,0,1,4.79-2,6.42,6.42,0,0,1,4.7,2A6.23,6.23,0,0,1,76.84,6.71Z"/><path d="M109.86.93V59.79H86V.93Z"/><path d="M171.89,21A29.43,29.43,0,0,1,180,14.85,20.3,20.3,0,0,1,188.86,13q7.59,0,11.92,4.67t4.36,12.92V59.79H182.61V31.86a5.22,5.22,0,0,0-1.22-3.66,4.08,4.08,0,0,0-3.18-1.35,6.85,6.85,0,0,0-2.22.42,9.12,9.12,0,0,0-2.14,1.08V59.79H151.33V31.86a5.52,5.52,0,0,0-1.14-3.6,4,4,0,0,0-3.26-1.41,6.25,6.25,0,0,0-2.22.46,9.59,9.59,0,0,0-2.14,1.12V59.79H118.73V13.35h23.84v5.82A18.69,18.69,0,0,1,156.88,13a18.41,18.41,0,0,1,8.83,1.95A16.51,16.51,0,0,1,171.89,21Z"/><path d="M248.92,28.2a21.72,21.72,0,0,0-5.5-3.74A12.75,12.75,0,0,0,238,23.14a4.79,4.79,0,0,0-2.81.76,2.28,2.28,0,0,0-1.08,2,3.18,3.18,0,0,0,1.58,2.86,11.16,11.16,0,0,0,2.33,1,37.3,37.3,0,0,0,3.8,1q7.29,1.71,10.68,5.27a12.52,12.52,0,0,1,3.4,9,13.09,13.09,0,0,1-5.83,11.34q-5.82,4.13-15,4.12a52.68,52.68,0,0,1-5.86-.34q-3.09-.35-6.6-1a62.8,62.8,0,0,1-6.75-1.63q-3.24-1-6.29-2.22l5.33-13a17.15,17.15,0,0,0,5.78,5.13,14.54,14.54,0,0,0,7,1.93,5.46,5.46,0,0,0,3.33-.93A2.83,2.83,0,0,0,232.25,46a3.25,3.25,0,0,0-1.52-2.85A15.65,15.65,0,0,0,226,41.24Q217.6,39,214.43,35.3a12.59,12.59,0,0,1-3.2-8.3,12.24,12.24,0,0,1,5.9-10.76q5.94-3.85,16.78-3.86a59.1,59.1,0,0,1,11.17,1,41.21,41.21,0,0,1,9.55,3Z"/></g></g></svg>