<svg xmlns="http://www.w3.org/2000/svg" viewBox="0 0 273 273"><defs><style>.cls-1{fill:#111;}.cls-2{fill:#ffe80a;}.cls-3{fill:#ff8e25;}.cls-4{fill:#ee0c00;}.cls-5{fill:#970000;}</style></defs><title>アセット 4</title><g id="レイヤー_2" data-name="レイヤー 2"><g id="レイヤー_1-2" data-name="レイヤー 1"><rect class="cls-1" width="273" height="273" rx="20" ry="20"/><path class="cls-2" d="M240.13,19.72H32.84A13,13,0,0,0,20,32.73v161a13,13,0,0,0,12.85,13H240.13a13,13,0,0,0,12.86-13v-161A13,13,0,0,0,240.13,19.72Z"/><rect class="cls-3" x="39.99" y="39.72" width="193" height="147" rx="12" ry="12"/><rect class="cls-4" x="59.99" y="59.72" width="153" height="108" rx="12" ry="12"/><rect class="cls-5" x="79.94" y="79.72" width="113.1" height="67"/><g id="人"><circle cx="136.5" cy="193.94" r="28.5"/><path d="M141.5,208.1c-2.75-4.77-7.25-4.77-10,0l-20.6,35.68c-2.75,4.76-.5,8.66,5,8.66h41.2c5.5,0,7.75-3.9,5-8.66Z"/></g><g id="人-2" data-name="人"><circle cx="199.5" cy="193.94" r="28.5"/><path d="M204.5,208.1c-2.75-4.77-7.25-4.77-10,0l-20.6,35.68c-2.75,4.76-.5,8.66,5,8.66h41.2c5.5,0,7.75-3.9,5-8.66Z"/></g><g id="人-3" data-name="人"><circle cx="73.5" cy="193.94" r="28.5"/><path d="M78.5,208.1c-2.75-4.77-7.25-4.77-10,0L47.9,243.78c-2.75,4.76-.5,8.66,5,8.66H94.1c5.5,0,7.75-3.9,5-8.66Z"/></g></g></g></svg>