<svg xmlns="http://www.w3.org/2000/svg" viewBox="0 0 255.94 60.48"><defs><style>.cls-1{fill:#111;}</style></defs><title>アセット 5</title><g id="レイヤー_2" data-name="レイヤー 2"><g id="レイヤー_1-2" data-name="レイヤー 1"><polygon class="cls-1" points="0 59.79 26.04 59.79 26.04 41.16 42.63 41.16 42.63 26.39 26.04 26.39 26.04 15.7 48.41 15.7 48.41 0.93 0 0.93 0 59.79"/><path class="cls-1" d="M65.38,16a31.65,31.65,0,0,1-6.82-.7,18.41,18.41,0,0,1-5.4-2V59.79H77V13.35a17.72,17.72,0,0,1-5.2,2A29.23,29.23,0,0,1,65.38,16Z"/><rect class="cls-1" x="86.02" y="0.93" width="23.84" height="58.86"/><path class="cls-1" d="M188.86,13A20.3,20.3,0,0,0,180,14.85,29.43,29.43,0,0,0,171.89,21a16.51,16.51,0,0,0-6.18-6.07A18.41,18.41,0,0,0,156.88,13a18.69,18.69,0,0,0-14.31,6.21V13.35H118.73V59.79h23.84V28.43a9.59,9.59,0,0,1,2.14-1.12,6.25,6.25,0,0,1,2.22-.46,4,4,0,0,1,3.26,1.41,5.52,5.52,0,0,1,1.14,3.6V59.79h22.52V28.35A9.12,9.12,0,0,1,176,27.27a6.85,6.85,0,0,1,2.22-.42,4.08,4.08,0,0,1,3.18,1.35,5.22,5.22,0,0,1,1.22,3.66V59.79h22.53V30.55q0-8.22-4.36-12.92T188.86,13Z"/><path class="cls-1" d="M252.54,36q-3.39-3.57-10.68-5.27a37.3,37.3,0,0,1-3.8-1,11.16,11.16,0,0,1-2.33-1,3.18,3.18,0,0,1-1.58-2.86,2.28,2.28,0,0,1,1.08-2,4.79,4.79,0,0,1,2.81-.76,12.75,12.75,0,0,1,5.38,1.32,21.72,21.72,0,0,1,5.5,3.74l5.71-11.84a41.21,41.21,0,0,0-9.55-3,59.1,59.1,0,0,0-11.17-1q-10.83,0-16.78,3.86A12.24,12.24,0,0,0,211.23,27a12.59,12.59,0,0,0,3.2,8.3Q217.59,39,226,41.24a15.65,15.65,0,0,1,4.69,1.89A3.25,3.25,0,0,1,232.25,46,2.83,2.83,0,0,1,231,48.37a5.46,5.46,0,0,1-3.33.93,14.54,14.54,0,0,1-7-1.93,17.15,17.15,0,0,1-5.78-5.13l-5.33,13q3,1.23,6.29,2.22a62.8,62.8,0,0,0,6.75,1.63q3.51.66,6.6,1a52.68,52.68,0,0,0,5.86.34q9.23,0,15-4.12A13.09,13.09,0,0,0,255.94,45,12.52,12.52,0,0,0,252.54,36Z"/><path class="cls-1" d="M70.13,13.5a6.38,6.38,0,0,0,4.7-2,6.55,6.55,0,0,0,2-4.79,6.23,6.23,0,0,0-2-4.74,6.42,6.42,0,0,0-4.7-2,6.55,6.55,0,0,0-4.79,2,6.38,6.38,0,0,0-2,4.7,6.57,6.57,0,0,0,2,4.79A6.57,6.57,0,0,0,70.13,13.5Z"/></g></g></svg>